<svg id="Layer_1" data-name="Layer 1" xmlns="http://www.w3.org/2000/svg" viewBox="0 0 585.54 226.42"><defs><style>.cls-1{fill:#0071bc;}.cls-2{fill:#0044c0;}.cls-3{fill:#29abe2;}.cls-4,.cls-5,.cls-6{fill:none;stroke:#0071bc;stroke-linecap:square;stroke-width:5px;}.cls-4{stroke-miterlimit:10;}.cls-5{stroke-miterlimit:2;}.cls-6{stroke-linejoin:bevel;}</style></defs><title>cwaret-logo</title><path class="cls-1" d="M125.28,53.8c-7-3-32.59-8.94-54.53,7.29-27,19.95-24.32,44.29-23.83,56.23-4.65-1-50.87,6.7-45.29,62.6,4.87,48.79,64.61,46.17,64.61,46.17l145.5.33s.5-196.78.5-226.42c-14.57.75-45.79-3.84-66.89,14.64C126.14,31.46,126.21,44.8,125.28,53.8Z" transform="translate(-1.17)"/><rect class="cls-1" x="220.08" y="0.17" width="31" height="31"/><rect class="cls-1" x="220.08" y="39.07" width="31" height="31"/><rect class="cls-1" x="220.08" y="77.98" width="31" height="31"/><rect class="cls-1" x="220.08" y="116.88" width="31" height="31"/><rect class="cls-2" x="220.08" y="155.78" width="31" height="31"/><polygon class="cls-1" points="251.08 226.03 220.08 225.9 220.08 194.9 251.08 195.03 251.08 226.03"/><rect class="cls-2" x="258.21" y="39.15" width="31" height="31"/><rect class="cls-1" x="258.21" y="78.18" width="31" height="31"/><rect class="cls-3" x="258.21" y="117.05" width="31" height="31"/><rect class="cls-1" x="258.21" y="155.99" width="31" height="31"/><rect class="cls-1" x="258.21" y="194.92" width="31" height="31"/><rect class="cls-3" x="296.33" y="78.38" width="31" height="31"/><rect class="cls-1" x="296.33" y="117.22" width="31" height="31"/><rect class="cls-2" x="296.33" y="156.19" width="31" height="31"/><rect class="cls-3" x="296.33" y="194.89" width="31" height="31"/><rect class="cls-1" x="334.46" y="78.59" width="31" height="31"/><rect class="cls-3" x="334.46" y="117.39" width="31" height="31"/><rect class="cls-3" x="334.46" y="156.39" width="31" height="31"/><rect class="cls-1" x="334.46" y="194.99" width="31" height="31"/><rect class="cls-3" x="372.58" y="156.59" width="31" height="31"/><rect class="cls-2" x="372.58" y="195.09" width="31" height="31"/><rect class="cls-1" x="411.08" y="195.07" width="31" height="31"/><path class="cls-4" d="M443.34,135.87H400.71s-14.77,0-14.77-20,15.37-20,15.37-20h42.63" transform="translate(-1.17)"/><polyline class="cls-5" points="531.89 95.91 513.86 135.87 513.85 135.87 495.82 95.91 477.8 135.87 477.79 135.87 459.76 95.91"/><line class="cls-6" x1="567.49" y1="74.58" x2="567.49" y2="135.87"/><line class="cls-6" x1="551.94" y1="94.28" x2="583.04" y2="94.28"/></svg>