<svg xmlns="http://www.w3.org/2000/svg" viewBox="0 0 588.61 226.42"><defs><style>.cls-1{isolation:isolate;}.cls-2{fill:#fff;}.cls-3{opacity:0.32;mix-blend-mode:multiply;}.cls-4{fill:#0071bc;}.cls-5{fill:#0044c0;}.cls-6{fill:#29abe2;}.cls-10,.cls-11,.cls-12,.cls-7,.cls-8,.cls-9{fill:none;stroke-linecap:square;stroke-width:5px;}.cls-7,.cls-8,.cls-9{stroke:#000;}.cls-10,.cls-7{stroke-miterlimit:10;}.cls-11,.cls-8{stroke-miterlimit:2;}.cls-12,.cls-9{stroke-linejoin:bevel;}.cls-10,.cls-11,.cls-12{stroke:#0071bc;}</style></defs><title>cwaret-logo-outlined-shadow</title><g class="cls-1"><g id="Layer_1" data-name="Layer 1"><path class="cls-2" d="M588.61,146.54V73.3H290.32V36h-36.2V.31H223.55C206.47.31,174-2.78,149.28,10.6c-15,8.13-27.83,27.66-29.1,37.83-8.87-1.77-31.37-2.69-50.11,11.71C44,80.2,45.28,99.28,44.72,112.53c-5-1.05-52,13.73-42.23,68.3,7.76,43.46,64,45.24,64,45.24l156.54.35v-.29H434.86V183H399.27v-36.3"/><g class="cls-3"><path d="M129.19,60.76c-6.65-2.81-30.94-8.38-51.77,6.83-25.6,18.69-23.09,41.49-22.62,52.68-4.41-.94-48.3,6.27-43,58.64,4.62,45.71,61.34,43.25,61.34,43.25l138.15.31s.47-184.34.47-212.11c-13.84.71-43.47-3.59-63.51,13.71C130,39.83,130.08,52.33,129.19,60.76Z"/></g><path class="cls-4" d="M126.19,57.76c-6.65-2.81-30.94-8.38-51.77,6.83-25.6,18.69-23.09,41.49-22.62,52.68-4.41-.94-48.3,6.27-43,58.64,4.62,45.71,61.34,43.25,61.34,43.25l138.15.31s.47-184.34.47-212.11c-13.84.71-43.47-3.59-63.51,13.71C127,36.83,127.08,49.33,126.19,57.76Z"/><g class="cls-3"><rect x="220.31" y="10.52" width="29.43" height="29.04"/></g><rect class="cls-4" x="217.31" y="7.52" width="29.43" height="29.04"/><g class="cls-3"><rect x="220.31" y="46.96" width="29.43" height="29.04"/></g><rect class="cls-4" x="217.31" y="43.96" width="29.43" height="29.04"/><g class="cls-3"><rect x="220.31" y="83.41" width="29.43" height="29.04"/></g><rect class="cls-4" x="217.31" y="80.41" width="29.43" height="29.04"/><g class="cls-3"><rect x="220.31" y="119.85" width="29.43" height="29.04"/></g><rect class="cls-4" x="217.31" y="116.85" width="29.43" height="29.04"/><g class="cls-3"><rect x="220.31" y="156.3" width="29.43" height="29.04"/></g><rect class="cls-5" x="217.31" y="153.3" width="29.43" height="29.04"/><g class="cls-3"><polygon points="249.75 222.1 220.31 221.98 220.31 192.94 249.75 193.06 249.75 222.1"/></g><polygon class="cls-4" points="246.75 219.1 217.31 218.98 217.31 189.94 246.75 190.06 246.75 219.1"/><g class="cls-3"><rect x="256.51" y="47.04" width="29.43" height="29.04"/></g><rect class="cls-5" x="253.51" y="44.04" width="29.43" height="29.04"/><g class="cls-3"><rect x="256.51" y="83.6" width="29.43" height="29.04"/></g><rect class="cls-4" x="253.51" y="80.6" width="29.43" height="29.04"/><g class="cls-3"><rect x="256.51" y="120.01" width="29.43" height="29.04"/></g><rect class="cls-6" x="253.51" y="117.01" width="29.43" height="29.04"/><g class="cls-3"><rect x="256.51" y="156.49" width="29.43" height="29.04"/></g><rect class="cls-4" x="253.51" y="153.49" width="29.43" height="29.04"/><g class="cls-3"><rect x="256.51" y="192.96" width="29.43" height="29.04"/></g><rect class="cls-4" x="253.51" y="189.96" width="29.43" height="29.04"/><g class="cls-3"><rect x="292.71" y="83.79" width="29.43" height="29.04"/></g><rect class="cls-6" x="289.71" y="80.79" width="29.43" height="29.04"/><g class="cls-3"><rect x="292.71" y="120.17" width="29.43" height="29.04"/></g><rect class="cls-4" x="289.71" y="117.17" width="29.43" height="29.04"/><g class="cls-3"><rect x="292.71" y="156.68" width="29.43" height="29.04"/></g><rect class="cls-5" x="289.71" y="153.68" width="29.43" height="29.04"/><g class="cls-3"><rect x="292.71" y="192.93" width="29.43" height="29.04"/></g><rect class="cls-6" x="289.71" y="189.93" width="29.43" height="29.04"/><g class="cls-3"><rect x="328.91" y="83.98" width="29.43" height="29.04"/></g><rect class="cls-4" x="325.91" y="80.98" width="29.43" height="29.04"/><g class="cls-3"><rect x="328.91" y="120.33" width="29.43" height="29.04"/></g><rect class="cls-6" x="325.91" y="117.33" width="29.43" height="29.04"/><g class="cls-3"><rect x="328.91" y="156.86" width="29.43" height="29.04"/></g><rect class="cls-6" x="325.91" y="153.86" width="29.43" height="29.04"/><g class="cls-3"><rect x="328.91" y="193.02" width="29.43" height="29.04"/></g><rect class="cls-4" x="325.91" y="190.02" width="29.43" height="29.04"/><g class="cls-3"><rect x="365.11" y="157.05" width="29.43" height="29.04"/></g><rect class="cls-6" x="362.11" y="154.05" width="29.43" height="29.04"/><g class="cls-3"><rect x="365.11" y="193.12" width="29.43" height="29.04"/></g><rect class="cls-5" x="362.11" y="190.12" width="29.43" height="29.04"/><g class="cls-3"><rect x="401.66" y="193.1" width="29.43" height="29.04"/></g><rect class="cls-4" x="398.66" y="190.1" width="29.43" height="29.04"/><g class="cls-3"><path class="cls-7" d="M431.18,137.65H390.71s-14,0-14-18.72,14.6-18.72,14.6-18.72h40.48"/><polyline class="cls-8" points="516.36 100.21 499.24 137.65 499.23 137.65 482.12 100.21 465 137.65 464.99 137.65 447.87 100.21"/><line class="cls-9" x1="550.16" y1="83.98" x2="550.16" y2="137.82"/><line class="cls-9" x1="535.4" y1="98.86" x2="564.92" y2="98.86"/></g><path class="cls-10" d="M428.18,134.65H387.71s-14,0-14-18.72,14.6-18.72,14.6-18.72h40.48"/><polyline class="cls-11" points="513.36 97.21 496.24 134.65 496.23 134.65 479.12 97.21 462 134.65 461.99 134.65 444.87 97.21"/><line class="cls-12" x1="547.16" y1="80.98" x2="547.16" y2="134.82"/><line class="cls-12" x1="532.4" y1="95.86" x2="561.92" y2="95.86"/></g></g></svg>