<svg id="Layer_1" data-name="Layer 1" xmlns="http://www.w3.org/2000/svg" viewBox="0 0 84.07 83.67"><title>ems-logo</title><rect width="84.07" height="83.67" rx="7.25" ry="7.25" transform="translate(84.07 83.67) rotate(180)" fill="#0071bc"/><path d="M70.8,47.79v-2.6s0-9.82-18.83-9.82-18.83,9.44-18.83,9.44V65.69" fill="none" stroke="#fff" stroke-miterlimit="10" stroke-width="6"/><line x1="70.8" y1="74.54" x2="70.8" y2="47.79" fill="none" stroke="#fff" stroke-miterlimit="10" stroke-width="6"/><path d="M52.53,26.57A10.43,10.43,0,1,1,63,16.14,10.44,10.44,0,0,1,52.53,26.57Z" fill="#00dbcc"/><path d="M52.53,7.71a8.43,8.43,0,1,1-8.43,8.43,8.44,8.44,0,0,1,8.43-8.43m0-4A12.43,12.43,0,1,0,65,16.14,12.43,12.43,0,0,0,52.53,3.71Z" fill="#fff"/><path d="M14.74,36.77V66.12s0,9.82,18.83,9.82S52.4,66.51,52.4,66.51l.17-6.6" fill="none" stroke="#fff" stroke-miterlimit="10" stroke-width="6"/><line x1="55.56" y1="47.82" x2="63.11" y2="47.93" fill="#00dbcc"/><polyline points="55.12 40.64 52.73 44.68 52.37 44.68 49.94 40.64" fill="#00dbcc"/><polygon points="52.53 58.34 52.53 58.34 48.75 54.43 52.53 44.15 52.53 44.15 56.31 54.32 52.53 58.34" fill="#00dbcc"/></svg>