<svg id="cwaret-logo" data-name="Layer 1" xmlns="http://www.w3.org/2000/svg" viewBox="0 0 588.61 226.42"><defs><style>.cls-1{fill:#fff;}.cls-2{fill:#0071bc;}.cls-3{fill:#0044c0;}.cls-4{fill:#29abe2;}.cls-5,.cls-6,.cls-7{fill:none;stroke:#0071bc;stroke-linecap:square;stroke-width:5px;}.cls-5{stroke-miterlimit:10;}.cls-6{stroke-miterlimit:2;}.cls-7{stroke-linejoin:bevel;}</style></defs><title>cwaret-logo-outlined</title><path class="cls-1" d="M588.61,146.54V73.3H290.32V36h-36.2V.31H223.55C206.47.31,174-2.78,149.28,10.6c-15,8.13-27.83,27.66-29.1,37.83-8.87-1.77-31.37-2.69-50.11,11.71C44,80.2,45.28,99.28,44.72,112.53c-5-1.05-52,13.73-42.23,68.3,7.76,43.46,64,45.24,64,45.24l156.54.35v-.29H434.86V183H399.27v-36.3"/><path class="cls-2" d="M126.19,57.76c-6.65-2.81-30.94-8.38-51.77,6.83-25.6,18.69-23.09,41.49-22.62,52.68-4.41-.94-48.3,6.27-43,58.64,4.62,45.71,61.34,43.25,61.34,43.25l138.15.31s.47-184.34.47-212.11c-13.84.71-43.47-3.59-63.51,13.71C127,36.83,127.08,49.33,126.19,57.76Z"/><rect class="cls-2" x="217.31" y="7.52" width="29.43" height="29.04"/><rect class="cls-2" x="217.31" y="43.96" width="29.43" height="29.04"/><rect class="cls-2" x="217.31" y="80.41" width="29.43" height="29.04"/><rect class="cls-2" x="217.31" y="116.85" width="29.43" height="29.04"/><rect class="cls-3" x="217.31" y="153.3" width="29.43" height="29.04"/><polygon class="cls-2" points="246.75 219.1 217.31 218.98 217.31 189.94 246.75 190.06 246.75 219.1"/><rect class="cls-3" x="253.51" y="44.04" width="29.43" height="29.04"/><rect class="cls-2" x="253.51" y="80.6" width="29.43" height="29.04"/><rect class="cls-4" x="253.51" y="117.01" width="29.43" height="29.04"/><rect class="cls-2" x="253.51" y="153.49" width="29.43" height="29.04"/><rect class="cls-2" x="253.51" y="189.96" width="29.43" height="29.04"/><rect class="cls-4" x="289.71" y="80.79" width="29.43" height="29.04"/><rect class="cls-2" x="289.71" y="117.17" width="29.43" height="29.04"/><rect class="cls-3" x="289.71" y="153.68" width="29.43" height="29.04"/><rect class="cls-4" x="289.71" y="189.93" width="29.43" height="29.04"/><rect class="cls-2" x="325.91" y="80.98" width="29.43" height="29.04"/><rect class="cls-4" x="325.91" y="117.33" width="29.43" height="29.04"/><rect class="cls-4" x="325.91" y="153.86" width="29.43" height="29.04"/><rect class="cls-2" x="325.91" y="190.02" width="29.43" height="29.04"/><rect class="cls-4" x="362.11" y="154.05" width="29.43" height="29.04"/><rect class="cls-3" x="362.11" y="190.12" width="29.43" height="29.04"/><rect class="cls-2" x="398.66" y="190.1" width="29.43" height="29.04"/><path class="cls-5" d="M428.18,134.65H387.71s-14,0-14-18.72,14.6-18.72,14.6-18.72h40.48"/><polyline class="cls-6" points="513.36 97.21 496.24 134.65 496.23 134.65 479.12 97.21 462 134.65 461.99 134.65 444.87 97.21"/><line class="cls-7" x1="547.16" y1="80.98" x2="547.16" y2="134.82"/><line class="cls-7" x1="532.4" y1="95.86" x2="561.92" y2="95.86"/></svg>